<svg width="32" height="20" viewBox="0 0 32 20" fill="none" xmlns="http://www.w3.org/2000/svg">
<path d="M31.7162 9.99874C31.7162 10.3777 31.5657 10.7411 31.2978 11.009C31.0298 11.277 30.6664 11.4275 30.2875 11.4275H23.1437C22.9086 11.4275 22.677 11.3695 22.4697 11.2586C22.2623 11.1477 22.0855 10.9873 21.955 10.7917L20.7177 8.93431L17.3544 19.0213C17.2599 19.306 17.0783 19.5537 16.8352 19.7293C16.5921 19.905 16.2999 19.9997 16 20H15.9457C15.6365 19.9882 15.3396 19.8763 15.0995 19.6813C14.8594 19.4863 14.689 19.2186 14.6141 18.9184L11.5165 6.53258L10.2107 10.4502C10.1159 10.7346 9.93418 10.982 9.6911 11.1574C9.44803 11.3328 9.15595 11.4273 8.8562 11.4275H1.71244C1.33351 11.4275 0.970106 11.277 0.702163 11.009C0.43422 10.7411 0.283691 10.3777 0.283691 9.99874C0.283691 9.61981 0.43422 9.2564 0.702163 8.98845C0.970106 8.72051 1.33351 8.56998 1.71244 8.56998H7.82607L10.3593 0.974736C10.4574 0.681857 10.6478 0.428676 10.902 0.253136C11.1562 0.077597 11.4604 -0.010846 11.769 0.00106268C12.0777 0.0129714 12.3742 0.12459 12.6141 0.319191C12.8539 0.513791 13.0243 0.780892 13.0996 1.08046L16.1971 13.4649L18.9318 5.26099C19.0164 5.00746 19.1704 4.78275 19.3764 4.61239C19.5824 4.44204 19.832 4.33287 20.0969 4.2973C20.3618 4.26174 20.6314 4.30119 20.875 4.41118C21.1186 4.52117 21.3264 4.69729 21.4749 4.91952L23.9081 8.56998H30.2875C30.6664 8.56998 31.0298 8.72051 31.2978 8.98845C31.5657 9.2564 31.7162 9.61981 31.7162 9.99874Z" fill="#8D96B0"/>
</svg>
