<svg width="36" height="36" viewBox="0 0 36 36" fill="none" xmlns="http://www.w3.org/2000/svg">
<path d="M24 21C25.9891 21 27.8968 21.7902 29.3033 23.1967C30.7098 24.6032 31.5 26.5109 31.5 28.5V30C31.5 30.7956 31.1839 31.5587 30.6213 32.1213C30.0587 32.6839 29.2956 33 28.5 33H7.5C6.70435 33 5.94129 32.6839 5.37868 32.1213C4.81607 31.5587 4.5 30.7956 4.5 30V28.5C4.5 26.5109 5.29018 24.6032 6.6967 23.1967C8.10322 21.7902 10.0109 21 12 21H24ZM30 12C30.3978 12 30.7794 12.158 31.0607 12.4393C31.342 12.7206 31.5 13.1022 31.5 13.5V15H33C33.3978 15 33.7794 15.158 34.0607 15.4393C34.342 15.7206 34.5 16.1022 34.5 16.5C34.5 16.8978 34.342 17.2794 34.0607 17.5607C33.7794 17.842 33.3978 18 33 18H31.5V19.5C31.5 19.8978 31.342 20.2794 31.0607 20.5607C30.7794 20.842 30.3978 21 30 21C29.6022 21 29.2206 20.842 28.9393 20.5607C28.658 20.2794 28.5 19.8978 28.5 19.5V18H27C26.6022 18 26.2206 17.842 25.9393 17.5607C25.658 17.2794 25.5 16.8978 25.5 16.5C25.5 16.1022 25.658 15.7206 25.9393 15.4393C26.2206 15.158 26.6022 15 27 15H28.5V13.5C28.5 13.1022 28.658 12.7206 28.9393 12.4393C29.2206 12.158 29.6022 12 30 12ZM18 3C19.9891 3 21.8968 3.79018 23.3033 5.1967C24.7098 6.60322 25.5 8.51088 25.5 10.5C25.5 12.4891 24.7098 14.3968 23.3033 15.8033C21.8968 17.2098 19.9891 18 18 18C16.0109 18 14.1032 17.2098 12.6967 15.8033C11.2902 14.3968 10.5 12.4891 10.5 10.5C10.5 8.51088 11.2902 6.60322 12.6967 5.1967C14.1032 3.79018 16.0109 3 18 3Z" fill="white"/>
</svg>
