<svg width="10" height="10" viewBox="0 0 10 10" fill="none" xmlns="http://www.w3.org/2000/svg">
<path d="M4.40641 0.959706C5.0209 0.345217 5.85432 0 6.72337 0C8.533 0 10 1.46701 10 3.27665C10 4.14568 9.65481 4.9791 9.04031 5.59359L7.75887 6.875L6.875 5.99112L8.15644 4.70971C8.5365 4.32964 8.75 3.81415 8.75 3.27665C8.75 2.15736 7.84262 1.25 6.72337 1.25C6.18585 1.25 5.67036 1.46352 5.29029 1.84359L4.00888 3.125L3.125 2.24112L4.40641 0.959706Z" fill="#8D96B0"/>
<path d="M4.70971 8.15644L5.99112 6.875L6.875 7.75887L5.59359 9.04031C4.9791 9.65481 4.14568 10 3.27665 10C1.46701 10 0 8.533 0 6.72337C0 5.85433 0.345217 5.0209 0.959706 4.40641L2.24112 3.125L3.125 4.00888L1.84359 5.29029C1.46352 5.67036 1.25 6.18585 1.25 6.72337C1.25 7.84262 2.15736 8.75 3.27665 8.75C3.81415 8.75 4.32964 8.5365 4.70971 8.15644Z" fill="#8D96B0"/>
<path d="M3.56699 7.31699L7.31699 3.56699L6.43311 2.68311L2.68311 6.43311L3.56699 7.31699Z" fill="#8D96B0"/>
</svg>
