<svg width="36" height="37" viewBox="0 0 36 37" fill="none" xmlns="http://www.w3.org/2000/svg">
<g filter="url(#filter0_b_236_1468)">
<circle cx="18" cy="18.75" r="18" fill="#D9D9D9" fill-opacity="0.4"/>
</g>
<path d="M17.8101 9.2823C15.7002 9.42633 13.7694 10.1504 12.0683 11.4311C11.6674 11.7347 10.6903 12.7118 10.3867 13.1127C9.50304 14.2844 8.97753 15.4795 8.71672 16.8886C8.63108 17.3441 8.59993 18.6832 8.65833 19.1503C8.82571 20.4582 9.27726 21.7117 9.94681 22.7432L10.1882 23.113L10.1414 23.4984C9.92734 25.3591 9.46022 26.7488 8.79068 27.5157C8.65054 27.6753 8.62329 27.7376 8.62329 27.8699C8.62329 28.0373 8.71672 28.1619 8.88021 28.2125C9.07874 28.2709 11.0095 27.8349 12.0722 27.4923C12.8274 27.2471 13.7033 26.8928 14.1704 26.6437L14.5246 26.4569L14.8321 26.5698C15.9571 26.9863 17.3274 27.2237 18.5886 27.2237C23.6919 27.2237 28.0011 23.732 28.5189 19.1736C28.5772 18.6403 28.5461 17.3519 28.4605 16.8886C28.1997 15.4756 27.678 14.2883 26.7905 13.1127C26.4869 12.7118 25.5098 11.7347 25.1089 11.4311C23.3766 10.127 21.4925 9.43022 19.2854 9.27841C18.6625 9.23559 18.4601 9.23559 17.8101 9.2823ZM14.3962 17.0249C14.8905 17.2117 15.2409 17.7217 15.2409 18.2627C15.2409 19.014 14.4584 19.668 13.7305 19.5201C13.4308 19.4617 13.2011 19.3332 12.9987 19.1191C12.7729 18.8778 12.6639 18.6287 12.6444 18.3095C12.6055 17.7567 12.9753 17.2039 13.5203 17.0054C13.7422 16.9237 14.1509 16.9353 14.3962 17.0249ZM19.153 17.0716C19.9432 17.4803 20.1262 18.508 19.5189 19.1308C19.2503 19.4072 18.9623 19.5318 18.5886 19.5318C18.355 19.5318 18.2499 19.5084 18.0709 19.4267C17.4091 19.123 17.1094 18.3523 17.413 17.7139C17.5804 17.3596 17.8684 17.1027 18.2382 16.982C18.2927 16.9626 18.4757 16.9548 18.647 16.9626C18.8883 16.9704 19.0012 16.9937 19.153 17.0716ZM23.7698 17.056C24.0578 17.1961 24.2564 17.3947 24.3965 17.6788C24.5094 17.9085 24.5249 17.9747 24.5249 18.2511C24.5211 18.6287 24.4393 18.8428 24.1785 19.1191C23.6491 19.6836 22.8316 19.6797 22.2905 19.1075C21.9791 18.7805 21.8623 18.3172 21.983 17.9046C22.0959 17.5153 22.4073 17.1689 22.7693 17.0249C23.0418 16.9159 23.5167 16.9314 23.7698 17.056Z" fill="white"/>
<defs>
<filter id="filter0_b_236_1468" x="-3.63025" y="-2.88025" width="43.2605" height="43.2605" filterUnits="userSpaceOnUse" color-interpolation-filters="sRGB">
<feFlood flood-opacity="0" result="BackgroundImageFix"/>
<feGaussianBlur in="BackgroundImageFix" stdDeviation="1.81513"/>
<feComposite in2="SourceAlpha" operator="in" result="effect1_backgroundBlur_236_1468"/>
<feBlend mode="normal" in="SourceGraphic" in2="effect1_backgroundBlur_236_1468" result="shape"/>
</filter>
</defs>
</svg>
