<svg width="20" height="20" viewBox="0 0 20 20" fill="none" xmlns="http://www.w3.org/2000/svg">
<path d="M8.74431 0.0576706C6.56409 0.338989 4.49718 1.35486 2.9304 2.92555C1.34408 4.50797 0.336019 6.57097 0.058608 8.78635C-0.019536 9.41541 -0.019536 10.5798 0.058608 11.2088C0.336019 13.4242 1.34408 15.4872 2.9304 17.0696C4.51281 18.6559 6.57581 19.664 8.79119 19.9414C9.42025 20.0195 10.5846 20.0195 11.2137 19.9414C14.5699 19.5233 17.4847 17.4486 18.989 14.3932C19.6805 12.9944 20.0048 11.5956 20.0048 9.99758C20.0048 8.39953 19.6805 7.00076 18.989 5.60198C17.4847 2.54655 14.5699 0.471834 11.2137 0.0537624C10.6159 -0.0204735 9.33039 -0.0165653 8.74431 0.0576706ZM15.2889 7.11797C15.6796 7.54777 16 7.91113 16 7.92676C16 7.95021 9.09595 14.2525 8.85371 14.4479C8.79119 14.4987 8.59974 14.3189 6.61879 12.338L4.4542 10.1734L5.26299 9.36461L6.07569 8.55192L7.47056 9.94678L8.86543 11.3417L9.15065 11.0838C9.30694 10.9431 10.569 9.79831 11.956 8.54019C13.9135 6.75851 14.484 6.2623 14.5231 6.29356C14.5543 6.317 14.8981 6.68818 15.2889 7.11797Z" fill="#FF3399"/>
</svg>
