<svg width="60" height="60" viewBox="0 0 60 60" fill="none" xmlns="http://www.w3.org/2000/svg">
<g filter="url(#filter0_f_5_2554)">
<circle cx="29.6891" cy="30.2026" r="9.7973" fill="black"/>
</g>
<circle cx="34" cy="25.1081" r="14.1081" fill="#FF3399"/>
<path d="M39.8783 31.6399H28.1216C27.8538 31.6399 27.6317 31.4178 27.6317 31.15C27.6317 30.8822 27.8538 30.6602 28.1216 30.6602H39.8783C40.1461 30.6602 40.3682 30.8822 40.3682 31.15C40.3682 31.4178 40.1461 31.6399 39.8783 31.6399Z" fill="white"/>
<path d="M38.585 19.5437C37.3179 18.2766 36.0769 18.2439 34.7771 19.5437L33.9868 20.334C33.9215 20.3993 33.8954 20.5038 33.9215 20.5953C34.4179 22.3261 35.8026 23.7108 37.5334 24.2072C37.5596 24.2137 37.5857 24.2203 37.6118 24.2203C37.6837 24.2203 37.749 24.1941 37.8012 24.1419L38.585 23.3516C39.2316 22.7115 39.5452 22.091 39.5452 21.4639C39.5517 20.8173 39.2382 20.1903 38.585 19.5437Z" fill="white"/>
<path d="M36.3578 24.8014C36.1684 24.71 35.9855 24.6186 35.8092 24.5141C35.6655 24.4291 35.5283 24.3377 35.3911 24.2397C35.2801 24.1679 35.1495 24.0634 35.0254 23.9589C35.0123 23.9523 34.9666 23.9132 34.9143 23.8609C34.6988 23.678 34.4571 23.4429 34.2416 23.1816C34.222 23.1686 34.1893 23.1228 34.1436 23.0641C34.0783 22.9857 33.9673 22.8551 33.8693 22.7048C33.7909 22.6069 33.6995 22.4632 33.6146 22.3195C33.5101 22.1431 33.4186 21.9668 33.3272 21.7839C33.2073 21.527 32.8701 21.4506 32.6696 21.6511L28.9968 25.324C28.9119 25.4089 28.8335 25.5722 28.8139 25.6832L28.4612 28.1848C28.3959 28.6289 28.52 29.0469 28.7943 29.3278C29.0294 29.5564 29.356 29.6805 29.7087 29.6805C29.7871 29.6805 29.8655 29.674 29.9438 29.6609L32.452 29.3082C32.5695 29.2886 32.7328 29.2102 32.8112 29.1253L36.4901 25.4464C36.6866 25.2499 36.6127 24.9119 36.3578 24.8014Z" fill="white"/>
<defs>
<filter id="filter0_f_5_2554" x="0.297251" y="0.810678" width="58.7838" height="58.7839" filterUnits="userSpaceOnUse" color-interpolation-filters="sRGB">
<feFlood flood-opacity="0" result="BackgroundImageFix"/>
<feBlend mode="normal" in="SourceGraphic" in2="BackgroundImageFix" result="shape"/>
<feGaussianBlur stdDeviation="9.7973" result="effect1_foregroundBlur_5_2554"/>
</filter>
</defs>
</svg>
