<svg width="20" height="16" viewBox="0 0 20 16" fill="none" xmlns="http://www.w3.org/2000/svg">
<path d="M0 8C0.835556 3.44889 4.82311 0 9.616 0C14.4089 0 18.3964 3.44889 19.2329 8C18.3973 12.5511 14.4089 16 9.616 16C4.82311 16 0.835556 12.5511 0 8ZM9.616 12.4444C10.7947 12.4444 11.9252 11.9762 12.7587 11.1427C13.5922 10.3092 14.0604 9.17874 14.0604 8C14.0604 6.82126 13.5922 5.6908 12.7587 4.8573C11.9252 4.02381 10.7947 3.55556 9.616 3.55556C8.43726 3.55556 7.3068 4.02381 6.4733 4.8573C5.63981 5.6908 5.17156 6.82126 5.17156 8C5.17156 9.17874 5.63981 10.3092 6.4733 11.1427C7.3068 11.9762 8.43726 12.4444 9.616 12.4444ZM9.616 10.6667C8.90876 10.6667 8.23048 10.3857 7.73038 9.88562C7.23029 9.38552 6.94933 8.70724 6.94933 8C6.94933 7.29276 7.23029 6.61448 7.73038 6.11438C8.23048 5.61428 8.90876 5.33333 9.616 5.33333C10.3232 5.33333 11.0015 5.61428 11.5016 6.11438C12.0017 6.61448 12.2827 7.29276 12.2827 8C12.2827 8.70724 12.0017 9.38552 11.5016 9.88562C11.0015 10.3857 10.3232 10.6667 9.616 10.6667Z" fill="#8D96B0"/>
</svg>
