<svg width="512" height="366" viewBox="0 0 512 366" fill="none" xmlns="http://www.w3.org/2000/svg">
<path d="M72.1581 0.970062C63.3581 3.57007 57.3581 15.2701 59.9581 24.8701C60.9581 28.6701 63.4581 31.7701 77.0581 45.4701L93.0581 61.5701L84.4581 67.8701C59.6581 85.8701 33.0581 112.47 13.5581 138.77C2.25806 154.07 0.658059 157.47 0.158059 168.57C-0.241941 177.17 -0.0419409 178.17 2.65806 184.07C7.95806 195.27 27.7581 220.47 45.1581 238.07C124.558 318.17 234.558 348.67 334.858 318.27L346.258 314.77L370.858 339.27C384.358 352.77 396.758 364.27 398.258 364.77C401.858 366.17 410.058 366.17 413.658 364.77C417.158 363.47 421.658 359.27 423.758 355.37C425.758 351.47 425.758 342.27 423.658 338.37C422.758 336.67 347.258 260.57 255.758 169.17C137.258 50.6701 88.3581 2.47006 85.758 1.37006C81.6581 -0.329926 77.1581 -0.429932 72.1581 0.970062ZM186.158 166.17C185.658 180.67 187.458 189.47 193.558 201.77C197.258 209.37 199.658 212.67 206.458 219.37C213.158 226.17 216.458 228.57 224.058 232.27C236.458 238.37 245.258 240.17 259.558 239.57L270.758 239.17L284.958 253.37C293.558 261.97 298.758 267.87 298.058 268.27C295.258 270.07 281.658 274.07 274.058 275.37C222.458 284.47 171.558 253.77 154.258 203.37C147.258 182.67 147.258 156.97 154.358 136.17C155.758 132.17 157.158 128.37 157.558 127.77C157.958 127.07 163.858 132.27 172.358 140.77L186.558 154.97L186.158 166.17Z" fill="#8D96B0"/>
<path d="M232.158 10.9702C220.658 11.9702 200.658 15.1702 191.458 17.4702C181.458 19.9702 164.958 25.1702 164.958 25.7702C164.958 26.0702 175.258 36.6702 187.858 49.2702L210.858 72.2702L220.158 69.0702C255.158 57.0702 291.058 62.5702 320.258 84.4702C357.658 112.57 372.258 160.87 356.858 205.57L353.558 214.97L385.658 247.07L417.758 279.17L427.558 271.87C453.758 252.47 478.558 227.67 498.358 200.97C510.558 184.57 511.458 182.37 511.458 169.87C511.458 157.37 510.558 155.17 498.358 138.77C466.358 95.5702 426.258 61.8702 380.458 39.3702C351.358 25.1702 322.958 16.3701 292.458 12.3701C277.958 10.3701 246.258 9.67017 232.158 10.9702Z" fill="#8D96B0"/>
<path d="M243.758 100.57C242.158 100.77 240.958 101.27 240.958 101.67C240.958 103.07 323.858 185.27 324.558 184.57C326.158 182.97 326.158 162.37 324.558 154.87C320.358 134.87 306.258 116.57 287.958 107.47C282.758 104.97 275.358 102.17 271.458 101.37C264.958 99.97 250.258 99.57 243.758 100.57Z" fill="#8D96B0"/>
</svg>
