<svg width="23" height="18" viewBox="0 0 23 18" fill="none" xmlns="http://www.w3.org/2000/svg">
<path d="M21.1501 11.25C21.1154 11.1115 21.1154 10.9385 21.2193 10.8346C21.8078 9.76154 22.1539 8.55 22.1539 7.26923C22.1539 3.25385 18.727 0 14.5385 0C12.7385 0 11.077 0.623077 9.7616 1.62692C14.0885 2.56154 17.3078 6.3 17.3078 10.7308C17.3078 11.9769 17.0654 13.1885 16.5808 14.2615C17.2731 14.0885 17.9308 13.8115 18.5539 13.4308C18.6924 13.3615 18.8308 13.3269 18.9693 13.3962L21.1847 14.1923C21.5654 14.3308 21.9462 13.95 21.8424 13.5346L21.1501 11.25Z" fill="#8D96B0"/>
<path d="M7.61539 3.46143C3.42692 3.46143 0 6.71527 0 10.7307C0 12.0114 0.346154 13.223 0.969231 14.296C1.03846 14.4345 1.07308 14.573 1.03846 14.7114L0.311538 17.0307C0.173077 17.446 0.553846 17.8268 0.969231 17.6883L3.18462 16.8922C3.32308 16.8576 3.49615 16.8576 3.6 16.9268C4.77692 17.6191 6.12692 17.9999 7.61539 17.9999C11.8038 17.9999 15.2308 14.746 15.2308 10.7307C15.2308 6.71527 11.8038 3.46143 7.61539 3.46143ZM3.46154 12.1153C2.7 12.1153 2.07692 11.4922 2.07692 10.7307C2.07692 9.96912 2.7 9.34604 3.46154 9.34604C4.22308 9.34604 4.84615 9.96912 4.84615 10.7307C4.84615 11.4922 4.22308 12.1153 3.46154 12.1153ZM7.61539 12.1153C6.85385 12.1153 6.23077 11.4922 6.23077 10.7307C6.23077 9.96912 6.85385 9.34604 7.61539 9.34604C8.37692 9.34604 9 9.96912 9 10.7307C9 11.4922 8.37692 12.1153 7.61539 12.1153ZM11.7692 12.1153C11.0077 12.1153 10.3846 11.4922 10.3846 10.7307C10.3846 9.96912 11.0077 9.34604 11.7692 9.34604C12.5308 9.34604 13.1538 9.96912 13.1538 10.7307C13.1538 11.4922 12.5308 12.1153 11.7692 12.1153Z" fill="#8D96B0"/>
</svg>
