<svg width="18" height="18" viewBox="0 0 18 18" fill="none" xmlns="http://www.w3.org/2000/svg">
<path d="M9 0C4.0374 0 0 4.0374 0 9C0 13.9626 4.0374 18 9 18C13.9626 18 18 13.9626 18 9C18 4.0374 13.9626 0 9 0ZM9 3.6C9.663 3.6 10.2 4.137 10.2 4.8C10.2 5.463 9.663 6 9 6C8.337 6 7.8 5.463 7.8 4.8C7.8 4.137 8.337 3.6 9 3.6ZM10.8 14.4H7.2C6.8688 14.4 6.6 14.1318 6.6 13.8C6.6 13.4682 6.8688 13.2 7.2 13.2H7.8V8.4H7.2C6.8688 8.4 6.6 8.1318 6.6 7.8C6.6 7.4682 6.8688 7.2 7.2 7.2H9.6C9.9312 7.2 10.2 7.4682 10.2 7.8V13.2H10.8C11.1312 13.2 11.4 13.4682 11.4 13.8C11.4 14.1318 11.1312 14.4 10.8 14.4Z" fill="#8D96B0"/>
</svg>
