<svg width="23" height="20" viewBox="0 0 23 20" fill="none" xmlns="http://www.w3.org/2000/svg">
<path d="M6.9182 0.378311C6.05229 0.58428 5.31249 0.777637 5.27886 0.807062C4.76604 1.24422 0.739136 4.88441 0.739136 4.91383C0.739136 4.96427 3.00479 8.48256 3.03422 8.48256C3.04683 8.48256 3.54283 8.25557 4.13552 7.97394C4.72821 7.69651 5.24103 7.45691 5.27045 7.4443C5.30828 7.42749 5.32089 8.69693 5.32089 13.7116V20H11.5H17.679V13.7116C17.679 8.69693 17.6916 7.42749 17.7337 7.4443C17.7589 7.45691 18.2717 7.69651 18.8644 7.97394C19.4613 8.25557 19.9531 8.48256 19.9657 8.48256C19.9951 8.48256 22.2608 4.96007 22.2608 4.91383C22.2608 4.88441 18.318 1.31568 17.7211 0.807062C17.6874 0.777637 16.9476 0.58428 16.0817 0.378311L14.5054 0L14.4003 0.130308C13.6647 1.05927 12.6685 1.54687 11.5 1.54687C10.3314 1.54687 9.33519 1.06347 8.59958 0.134512L8.4945 0L6.9182 0.378311Z" fill="white"/>
</svg>
