<svg width="21" height="18" viewBox="0 0 21 18" fill="none" xmlns="http://www.w3.org/2000/svg">
<path d="M19.6532 15.4095C19.277 14.6828 18.6868 14.2102 18.1102 13.8893C17.5337 13.5678 16.9562 13.3855 16.5782 13.2432C16.2792 13.132 15.9645 12.9878 15.7532 12.8389C15.6474 12.7656 15.57 12.6916 15.53 12.6367C15.4888 12.5796 15.4866 12.5543 15.486 12.5399C15.486 12.2559 15.486 11.9019 15.486 11.4415C15.6739 11.2311 15.8996 10.9673 16.1109 10.6287C16.3313 10.2759 16.5276 9.83702 16.6488 9.31046C16.7177 9.27674 16.7864 9.23804 16.8535 9.19088C17.0599 9.04887 17.2344 8.84128 17.3761 8.57131C17.5197 8.30004 17.6433 7.96039 17.7747 7.50124C17.858 7.20878 17.8971 6.97155 17.8974 6.76209C17.8977 6.56794 17.8618 6.39157 17.7791 6.24109C17.7179 6.12872 17.6314 6.0379 17.5444 5.97699C17.4566 5.91581 17.3746 5.8815 17.3068 5.85902C17.3065 5.85029 17.3062 5.84281 17.3062 5.83309C17.3052 5.60554 17.3505 5.22288 17.402 4.87265C17.4329 4.65849 17.452 4.43093 17.452 4.19593C17.452 3.83634 17.4076 3.45737 17.2922 3.08344C17.1208 2.52316 16.7771 1.97189 16.2046 1.55673C15.6362 1.14313 14.8577 0.867867 13.8295 0.785108C12.6826 0.645283 12.0047 0.513213 11.4569 0.386157C10.9097 0.259727 10.478 0.132984 9.84867 0.0103141V0.0106274C9.81185 0.00377329 9.77562 1.33022e-05 9.74221 1.33022e-05C9.65981 -0.000613363 9.57145 0.0209283 9.49934 0.0589982C9.3614 0.132044 9.29019 0.235992 9.24433 0.321532C9.16694 0.474477 9.14195 0.613088 9.11727 0.759454C9.08449 0.976397 9.07168 1.20674 9.05359 1.39748C9.04485 1.49238 9.03455 1.57694 9.02363 1.63596C9.0183 1.6653 9.01238 1.68809 9.00862 1.70027L9.00581 1.70932C8.45363 2.67791 8.3169 3.6899 8.3169 4.47339C8.3169 5.09707 8.40401 5.58372 8.44678 5.79722C8.46237 5.87684 8.46864 5.93148 8.47208 5.97515C8.42806 6.00633 8.38188 6.04318 8.33378 6.0903C8.24793 6.1749 8.16212 6.28915 8.09969 6.43395C8.03725 6.57816 7.9995 6.75112 7.99981 6.94339C7.99981 7.0932 8.02167 7.25398 8.06851 7.42753C8.2383 8.05807 8.44933 8.49599 8.71213 8.81191C8.90816 9.05071 9.13509 9.20706 9.35392 9.31168C9.47565 9.83764 9.67168 10.2762 9.89175 10.6286C10.1031 10.9673 10.3288 11.231 10.5167 11.4414C10.5167 11.9019 10.5167 12.2558 10.5167 12.5399C10.517 12.5452 10.5145 12.5746 10.4683 12.6366C10.4018 12.7275 10.2423 12.8555 10.0485 12.9644C9.85494 13.0746 9.62863 13.171 9.43135 13.2407C9.17508 13.3312 8.83046 13.4426 8.45994 13.6015C7.90432 13.8393 7.28032 14.1852 6.78588 14.7577C6.28956 15.3283 5.94623 16.1305 5.94936 17.1787C5.94936 17.3229 5.95559 17.4727 5.9684 17.6269L5.99965 18H6.37393H20.0032L20.0344 17.6269C20.0472 17.4731 20.0534 17.3239 20.0534 17.18C20.054 16.4814 19.9041 15.8924 19.6532 15.4095Z" fill="#8D96B0"/>
<path d="M4.99035 17.179C4.9869 15.9947 5.35742 14.939 6.06226 14.1287C6.56293 13.549 7.22437 13.0877 8.08247 12.7202C8.25167 12.6478 8.41335 12.5851 8.56411 12.5298C8.56411 12.4006 8.56411 12.2642 8.56411 12.1106C8.73299 11.9217 8.93556 11.6849 9.12536 11.3805C9.14409 11.3509 9.16124 11.3168 9.17937 11.2856C9.14565 11.2353 9.11166 11.1901 9.07825 11.1364C8.8485 10.7687 8.66527 10.3673 8.53136 9.93901C8.32159 9.79261 8.13402 9.61937 7.97105 9.42052C7.6102 8.98695 7.34583 8.43165 7.14263 7.67718C7.07519 7.42714 7.04088 7.18023 7.04088 6.94363C7.04025 6.62865 7.10049 6.3284 7.21975 6.05337C7.28093 5.91104 7.35738 5.7774 7.44762 5.65383C7.38829 5.26773 7.35801 4.87128 7.35801 4.47359C7.35801 3.81653 7.44292 3.19378 7.60554 2.6082C7.43728 2.57977 7.2628 2.55576 7.07644 2.54079C6.04667 2.4153 5.43799 2.29671 4.94605 2.18273C4.45443 2.06915 4.06672 1.95518 3.50175 1.845V1.84531C3.46869 1.83936 3.43618 1.83595 3.40626 1.83595C3.33231 1.83533 3.253 1.85467 3.18806 1.88871C3.06414 1.95459 3.00045 2.04792 2.95925 2.12469C2.88965 2.26205 2.86717 2.38628 2.84496 2.518C2.81563 2.71281 2.80407 2.91942 2.78786 3.09081C2.78006 3.17604 2.7707 3.25218 2.76099 3.30493C2.75598 3.33149 2.75069 3.35178 2.74759 3.36271L2.74477 3.37077C2.24908 4.24074 2.12641 5.14941 2.12641 5.853C2.12641 6.41296 2.20443 6.84998 2.24285 7.04194C2.25688 7.11342 2.26252 7.16241 2.26561 7.20174C2.22597 7.22951 2.18446 7.2626 2.14141 7.30506C2.06429 7.38092 1.98717 7.48362 1.93101 7.61381C1.87512 7.74333 1.84108 7.89847 1.8414 8.07108C1.8414 8.20562 1.86106 8.35014 1.9032 8.50591C2.05548 9.07214 2.24497 9.46541 2.48099 9.74917C2.657 9.96361 2.86082 10.1041 3.05752 10.198C3.16679 10.6703 3.34281 11.0639 3.5404 11.3804C3.73021 11.6848 3.93277 11.9217 4.10166 12.1105C4.10166 12.5238 4.10166 12.8419 4.10166 13.0969C4.10197 13.1016 4.09978 13.1278 4.05826 13.1837C3.99834 13.2652 3.85507 13.3804 3.68121 13.4781C3.50735 13.577 3.30415 13.6638 3.12684 13.7262C2.89678 13.8074 2.58744 13.9076 2.25472 14.0503C1.75558 14.2637 1.19527 14.5743 0.75139 15.0884C0.305635 15.6011 -0.00272353 16.3215 1.81362e-05 17.2626C1.81362e-05 17.3922 0.00565813 17.5267 0.0172123 17.6652L0.0452947 18.0002H0.381148H5.03712L5.01279 17.7071C4.99783 17.5279 4.99035 17.3506 4.99035 17.179Z" fill="#8D96B0"/>
</svg>
