<svg width="36" height="37" viewBox="0 0 36 37" fill="none" xmlns="http://www.w3.org/2000/svg">
<g filter="url(#filter0_b_236_1482)">
<circle cx="18" cy="18.75" r="18" fill="#D9D9D9" fill-opacity="0.4"/>
</g>
<path d="M17.8373 9.25028C17.7277 9.29272 17.5827 9.367 17.5119 9.40944C17.3422 9.51554 17.0663 9.8197 16.9496 10.0354C16.9001 10.1309 16.5924 10.8949 16.274 11.7331C15.9522 12.5713 15.648 13.3423 15.595 13.4484C15.1741 14.276 14.2333 15.2946 12.953 16.3097L12.571 16.6103V21.4628V26.3152L13.0414 26.4602C14.1484 26.8104 15.1423 27.0261 16.4615 27.1923C17.0486 27.2666 22.7605 27.3055 23.0753 27.2383C23.726 27.0933 24.3167 26.5098 24.4688 25.859C24.5713 25.4381 24.5253 24.9677 24.3485 24.5999C24.3096 24.5221 24.2778 24.4478 24.2778 24.4372C24.2778 24.4266 24.345 24.3771 24.4299 24.3276C24.6491 24.2002 24.9604 23.8536 25.0912 23.599C25.2115 23.3549 25.3034 22.9977 25.3034 22.7466C25.3034 22.5026 25.2115 22.1277 25.0983 21.8978L24.9922 21.6927L25.1726 21.5441C25.8658 20.9818 26.0638 20.0445 25.6677 19.2098C25.6076 19.0825 25.4767 18.9163 25.2893 18.7324L24.9993 18.4494L25.0983 18.2549C25.2079 18.0392 25.3034 17.6501 25.3034 17.4061C25.3034 16.5643 24.6739 15.7792 23.8463 15.5847C23.6624 15.5422 23.2556 15.5316 21.5651 15.5316C20.4298 15.5316 19.5031 15.5245 19.5031 15.5175C19.5031 15.5104 19.542 15.3088 19.5915 15.0683C19.924 13.4484 20.0867 11.8321 19.9983 11.0399C19.878 9.93642 19.5739 9.45542 18.863 9.2326C18.5482 9.13357 18.0955 9.14064 17.8373 9.25028Z" fill="white"/>
<path d="M8.16782 17.1268C8.09355 17.1445 7.99098 17.1975 7.945 17.24C7.75048 17.4203 7.76109 17.1834 7.76109 21.6079V25.707L7.84243 25.8272C8.00866 26.0748 7.9733 26.0713 9.8584 26.0713H11.5454V21.5796V17.0879L9.92913 17.0914C9.03787 17.0949 8.24563 17.1091 8.16782 17.1268Z" fill="white"/>
<defs>
<filter id="filter0_b_236_1482" x="-3.63025" y="-2.88025" width="43.2605" height="43.2605" filterUnits="userSpaceOnUse" color-interpolation-filters="sRGB">
<feFlood flood-opacity="0" result="BackgroundImageFix"/>
<feGaussianBlur in="BackgroundImageFix" stdDeviation="1.81513"/>
<feComposite in2="SourceAlpha" operator="in" result="effect1_backgroundBlur_236_1482"/>
<feBlend mode="normal" in="SourceGraphic" in2="effect1_backgroundBlur_236_1482" result="shape"/>
</filter>
</defs>
</svg>
