<svg width="24" height="22" viewBox="0 0 24 22" fill="none" xmlns="http://www.w3.org/2000/svg">
<path d="M7.87999 10.9315C7.87999 10.5602 8.21999 10.2523 8.62999 10.2523H14.11V2.59039C14.1 2.15567 13.72 1.81152 13.24 1.81152C7.34999 1.81152 3.23999 5.53379 3.23999 10.8681C3.23999 16.2025 7.34999 19.9247 13.24 19.9247C13.71 19.9247 14.1 19.5806 14.1 19.1459V11.6017H8.62999C8.20999 11.6108 7.87999 11.3028 7.87999 10.9315Z" fill="#FF5C00"/>
<path d="M20.5396 10.4515L17.6996 7.87032C17.4096 7.60768 16.9296 7.60768 16.6396 7.87032C16.3496 8.13296 16.3496 8.56768 16.6396 8.83032L18.1996 10.2432H14.0996V11.6016H18.1896L16.6296 13.0145C16.3396 13.2771 16.3396 13.7118 16.6296 13.9745C16.7796 14.1103 16.9696 14.1737 17.1596 14.1737C17.3496 14.1737 17.5396 14.1103 17.6896 13.9745L20.5296 11.3933C20.8296 11.1398 20.8296 10.7141 20.5396 10.4515Z" fill="#FF5C00"/>
</svg>
