<svg width="379" height="21" viewBox="0 0 379 21" fill="none" xmlns="http://www.w3.org/2000/svg">
<path d="M18.5221 10.1309C19.1879 10.5172 19.186 11.4794 18.5185 11.8629L6.50445 18.7667C5.837 19.1502 5.00464 18.6674 5.00621 17.8976L5.03443 4.04125C5.03599 3.27145 5.8703 2.79202 6.53619 3.17828L18.5221 10.1309Z" fill="white"/>
<rect x="35.0406" y="8.97998" width="308" height="4" rx="2" fill="#8D96B0"/>
<rect x="35.0406" y="8.97998" width="175.193" height="4" rx="2" fill="#FF3399"/>
<path d="M368.827 3.55948C368.827 3.13569 368.713 2.44093 368.077 2.12096C367.403 1.78128 366.774 2.16527 366.456 2.45115L361.588 6.87862H359.839C358.846 6.87862 358.041 7.6835 358.041 8.67637L358.041 13.3394C358.041 14.3322 358.846 15.1371 359.839 15.1371H361.591L366.456 19.5095C366.776 19.7963 367.403 20.1783 368.077 19.8388C368.712 19.5191 368.827 18.8259 368.827 18.4012V3.55948Z" fill="white"/>
<path d="M372.725 3.60542L372.508 3.54502C372.03 3.41159 371.534 3.69105 371.401 4.16923L371.28 4.60212C371.147 5.08029 371.426 5.57609 371.904 5.70952L372.121 5.76991C374.18 6.34456 375.794 8.41448 375.794 10.9798C375.794 13.5451 374.18 15.615 372.121 16.1897L371.904 16.25C371.426 16.3835 371.147 16.8793 371.28 17.3574L371.401 17.7903C371.534 18.2685 372.03 18.548 372.508 18.4146L372.725 18.3542C375.835 17.4864 378.041 14.469 378.041 10.9798C378.041 7.49059 375.835 4.4732 372.725 3.60542Z" fill="white"/>
<path d="M371.846 7.20676L371.63 7.14239C371.155 7.00019 370.654 7.27049 370.512 7.74612L370.383 8.17673C370.241 8.65236 370.511 9.15321 370.987 9.29539L371.202 9.35975C371.681 9.50312 372.198 10.0918 372.198 10.9799C372.198 11.8681 371.681 12.4567 371.202 12.6L370.987 12.6644C370.511 12.8066 370.241 13.3074 370.383 13.783L370.512 14.2137C370.654 14.6893 371.155 14.9595 371.63 14.8173L371.846 14.753C373.434 14.2781 374.445 12.6866 374.445 10.9799C374.445 9.27328 373.434 7.68163 371.846 7.20676Z" fill="white"/>
</svg>
