<svg width="36" height="37" viewBox="0 0 36 37" fill="none" xmlns="http://www.w3.org/2000/svg">
<g filter="url(#filter0_b_236_1495)">
<circle cx="18" cy="18.75" r="18" fill="#D9D9D9" fill-opacity="0.4"/>
</g>
<path d="M12.3611 10.021C12.2349 10.0693 12.0643 10.1509 11.9827 10.2065C11.6229 10.4439 11.3261 10.8743 11.2445 11.2786C11.2148 11.4122 11.2074 13.9273 11.2111 19.7069L11.2222 27.9422L11.3261 28.1463C11.4708 28.4282 11.7267 28.6767 11.9975 28.8029C12.2016 28.8956 12.2609 28.9067 12.6319 28.9067C13.0065 28.9067 13.0548 28.8993 13.244 28.8029C13.4072 28.7175 13.9006 28.2464 15.6367 26.514C16.8423 25.3158 17.8847 24.3031 17.9552 24.266C18.1295 24.1733 18.5228 24.1733 18.6971 24.266C18.7676 24.3031 19.8137 25.3158 21.0156 26.514C22.7517 28.2427 23.2451 28.7175 23.4083 28.7992C23.5975 28.8993 23.6457 28.9067 24.0204 28.9067C24.384 28.9067 24.4507 28.8956 24.6399 28.8066C24.9219 28.6767 25.2001 28.4096 25.3262 28.15L25.4301 27.9422L25.4412 19.7069C25.4449 13.9273 25.4375 11.4122 25.4078 11.2786C25.3077 10.7852 24.9367 10.3252 24.4507 10.0878L24.1688 9.95057L18.3818 9.94315L12.5948 9.93573L12.3611 10.021Z" fill="white"/>
<defs>
<filter id="filter0_b_236_1495" x="-3.63025" y="-2.88025" width="43.2605" height="43.2605" filterUnits="userSpaceOnUse" color-interpolation-filters="sRGB">
<feFlood flood-opacity="0" result="BackgroundImageFix"/>
<feGaussianBlur in="BackgroundImageFix" stdDeviation="1.81513"/>
<feComposite in2="SourceAlpha" operator="in" result="effect1_backgroundBlur_236_1495"/>
<feBlend mode="normal" in="SourceGraphic" in2="effect1_backgroundBlur_236_1495" result="shape"/>
</filter>
</defs>
</svg>
