<svg width="24" height="24" viewBox="0 0 24 24" fill="none" xmlns="http://www.w3.org/2000/svg">
<g filter="url(#filter0_b_27_303)">
<circle cx="12" cy="12" r="12" fill="#D9D9D9" fill-opacity="0.4"/>
</g>
<path d="M16.588 10.5274C15.6292 10.5274 15.2372 9.84933 15.7139 9.01766C15.9894 8.53561 15.8252 7.92114 15.3431 7.64568L14.4267 7.12125C14.0082 6.87228 13.4679 7.02061 13.2189 7.43909L13.1607 7.53974C12.6839 8.3714 11.8999 8.3714 11.4179 7.53974L11.3596 7.43909C11.1212 7.02061 10.5809 6.87228 10.1624 7.12125L9.24602 7.64568C8.76398 7.92114 8.59976 8.54091 8.87522 9.02296C9.35727 9.84933 8.96527 10.5274 8.00647 10.5274C7.45556 10.5274 7 10.9776 7 11.5338V12.4662C7 13.0171 7.45026 13.4726 8.00647 13.4726C8.96527 13.4726 9.35727 14.1507 8.87522 14.9823C8.59976 15.4644 8.76398 16.0789 9.24602 16.3543L10.1624 16.8787C10.5809 17.1277 11.1212 16.9794 11.3702 16.5609L11.4285 16.4603C11.9052 15.6286 12.6892 15.6286 13.1713 16.4603L13.2295 16.5609C13.4785 16.9794 14.0188 17.1277 14.4373 16.8787L15.3537 16.3543C15.8358 16.0789 16 15.4591 15.7245 14.9823C15.2425 14.1507 15.6345 13.4726 16.5933 13.4726C17.1442 13.4726 17.5998 13.0224 17.5998 12.4662V11.5338C17.5945 10.9829 17.1442 10.5274 16.588 10.5274ZM12.2972 13.7216C11.349 13.7216 10.5756 12.9482 10.5756 12C10.5756 11.0518 11.349 10.2784 12.2972 10.2784C13.2454 10.2784 14.0188 11.0518 14.0188 12C14.0188 12.9482 13.2454 13.7216 12.2972 13.7216Z" fill="white"/>
<defs>
<filter id="filter0_b_27_303" x="-2.0001" y="-2.0001" width="28.0002" height="28.0002" filterUnits="userSpaceOnUse" color-interpolation-filters="sRGB">
<feFlood flood-opacity="0" result="BackgroundImageFix"/>
<feGaussianBlur in="BackgroundImageFix" stdDeviation="1.00005"/>
<feComposite in2="SourceAlpha" operator="in" result="effect1_backgroundBlur_27_303"/>
<feBlend mode="normal" in="SourceGraphic" in2="effect1_backgroundBlur_27_303" result="shape"/>
</filter>
</defs>
</svg>
