<svg width="37" height="37" viewBox="0 0 37 37" fill="none" xmlns="http://www.w3.org/2000/svg">
<g filter="url(#filter0_b_236_1493)">
<circle cx="18.375" cy="18.375" r="18.375" fill="#D9D9D9" fill-opacity="0.4"/>
</g>
<path d="M10.3865 23.3614C10.3865 24.1938 10.6789 24.9025 11.2638 25.4874C11.8488 26.0723 12.5574 26.3647 13.3898 26.3647H23.3783C24.1994 26.3647 24.9025 26.0723 25.4874 25.4874C26.0723 24.9025 26.3647 24.1938 26.3647 23.3614V19.0421L24.3738 20.7124V23.3614C24.3738 23.6426 24.2782 23.8789 24.087 24.0701C23.8957 24.2613 23.6595 24.3625 23.3783 24.3738H13.3898C13.1086 24.3738 12.8724 24.2725 12.6811 24.0701C12.4899 23.8676 12.3943 23.6314 12.3943 23.3614V13.3729C12.3943 13.1029 12.4899 12.8667 12.6811 12.6643C12.8724 12.4618 13.1086 12.3662 13.3898 12.3774H18.384V10.3865H13.3898C12.5574 10.3865 11.8488 10.6789 11.2638 11.2638C10.6789 11.8488 10.3865 12.5518 10.3865 13.3729V23.3614ZM13.3898 20.375C13.3898 21.3424 13.581 22.2703 13.9634 23.159C14.1434 22.1241 14.5371 21.1849 15.1445 20.3413C15.7519 19.4976 16.5056 18.8171 17.4054 18.2997C18.3053 17.7823 19.2952 17.4898 20.375 17.4223V20.375L26.3647 15.3807L20.375 10.3865V13.3729C19.4301 13.3729 18.5246 13.5585 17.6585 13.9297C16.7924 14.3009 16.05 14.8014 15.4314 15.4314C14.8127 16.0613 14.3121 16.8037 13.9297 17.6585C13.5473 18.5134 13.3673 19.4189 13.3898 20.375Z" fill="white"/>
<defs>
<filter id="filter0_b_236_1493" x="-3.63025" y="-3.63025" width="44.0105" height="44.0105" filterUnits="userSpaceOnUse" color-interpolation-filters="sRGB">
<feFlood flood-opacity="0" result="BackgroundImageFix"/>
<feGaussianBlur in="BackgroundImageFix" stdDeviation="1.81513"/>
<feComposite in2="SourceAlpha" operator="in" result="effect1_backgroundBlur_236_1493"/>
<feBlend mode="normal" in="SourceGraphic" in2="effect1_backgroundBlur_236_1493" result="shape"/>
</filter>
</defs>
</svg>
