<svg width="313" height="34" viewBox="0 0 313 34" fill="none" xmlns="http://www.w3.org/2000/svg">
<path d="M5.348 1.732L5.74 2.446L3.766 3.342L5.754 4.238L5.348 4.966L3.542 3.762L3.71 5.96H2.898L3.052 3.762L1.246 4.98L0.826 4.238L2.814 3.342L0.84 2.46L1.246 1.732L3.066 2.95L2.898 0.751999H3.724L3.542 2.95L5.348 1.732Z" fill="#FF4B26"/>
<path d="M23.3963 1.214L20.6243 11H19.5323L17.0683 2.656L14.5483 11L13.4843 11.014L10.7683 1.214H11.8183L14.0583 9.796L16.5643 1.214H17.6563L20.0923 9.796L22.3463 1.214H23.3963ZM31.8114 6.786C31.8114 7.122 31.8021 7.37867 31.7834 7.556H25.4414C25.4694 8.13467 25.6094 8.62933 25.8614 9.04C26.1134 9.45067 26.4447 9.76333 26.8554 9.978C27.2661 10.1833 27.7141 10.286 28.1994 10.286C28.8341 10.286 29.3661 10.132 29.7954 9.824C30.2341 9.516 30.5234 9.10067 30.6634 8.578H31.6994C31.5127 9.32467 31.1114 9.936 30.4954 10.412C29.8887 10.8787 29.1234 11.112 28.1994 11.112C27.4807 11.112 26.8367 10.9533 26.2674 10.636C25.6981 10.3093 25.2501 9.852 24.9234 9.264C24.6061 8.66667 24.4474 7.97133 24.4474 7.178C24.4474 6.38467 24.6061 5.68933 24.9234 5.092C25.2407 4.49467 25.6841 4.03733 26.2534 3.72C26.8227 3.40267 27.4714 3.244 28.1994 3.244C28.9274 3.244 29.5621 3.40267 30.1034 3.72C30.6541 4.03733 31.0741 4.46667 31.3634 5.008C31.6621 5.54 31.8114 6.13267 31.8114 6.786ZM30.8174 6.758C30.8267 6.18867 30.7101 5.70333 30.4674 5.302C30.2341 4.90067 29.9121 4.59733 29.5014 4.392C29.0907 4.18667 28.6427 4.084 28.1574 4.084C27.4294 4.084 26.8087 4.31733 26.2954 4.784C25.7821 5.25067 25.4974 5.90867 25.4414 6.758H30.8174ZM47.5262 3.356L45.1322 11H44.1522L42.0382 4.588L39.9242 11H38.9302L36.5362 3.356H37.5302L39.4342 10.006L41.5762 3.356H42.5562L44.6702 10.02L46.5602 3.356H47.5262ZM49.3522 1.914C49.1562 1.914 48.9882 1.844 48.8482 1.704C48.7082 1.564 48.6382 1.39133 48.6382 1.186C48.6382 0.980666 48.7082 0.812666 48.8482 0.681999C48.9882 0.541999 49.1562 0.472 49.3522 0.472C49.5482 0.472 49.7162 0.541999 49.8562 0.681999C49.9962 0.812666 50.0662 0.980666 50.0662 1.186C50.0662 1.39133 49.9962 1.564 49.8562 1.704C49.7162 1.844 49.5482 1.914 49.3522 1.914ZM49.8422 3.356V11H48.8622V3.356H49.8422ZM53.0414 0.64V11H52.0614V0.64H53.0414ZM56.2406 0.64V11H55.2606V0.64H56.2406ZM64.9336 11.112C64.0563 11.112 63.3376 10.9113 62.7776 10.51C62.227 10.0993 61.919 9.544 61.8536 8.844H62.8616C62.9083 9.27333 63.109 9.62333 63.4636 9.894C63.8276 10.1553 64.313 10.286 64.9196 10.286C65.4516 10.286 65.867 10.16 66.1656 9.908C66.4736 9.656 66.6276 9.34333 66.6276 8.97C66.6276 8.70867 66.5436 8.494 66.3756 8.326C66.2076 8.158 65.993 8.02733 65.7316 7.934C65.4796 7.83133 65.1343 7.724 64.6956 7.612C64.1263 7.46267 63.6643 7.31333 63.3096 7.164C62.955 7.01467 62.6516 6.79533 62.3996 6.506C62.157 6.20733 62.0356 5.81067 62.0356 5.316C62.0356 4.94267 62.1476 4.59733 62.3716 4.28C62.5956 3.96267 62.913 3.71067 63.3236 3.524C63.7343 3.33733 64.201 3.244 64.7236 3.244C65.545 3.244 66.2076 3.454 66.7116 3.874C67.2156 4.28467 67.4863 4.854 67.5236 5.582H66.5436C66.5156 5.134 66.3383 4.77467 66.0116 4.504C65.6943 4.224 65.2556 4.084 64.6956 4.084C64.201 4.084 63.7996 4.20067 63.4916 4.434C63.1836 4.66733 63.0296 4.95667 63.0296 5.302C63.0296 5.60067 63.1183 5.848 63.2956 6.044C63.4823 6.23067 63.711 6.38 63.9816 6.492C64.2523 6.59467 64.6163 6.71133 65.0736 6.842C65.6243 6.99133 66.063 7.136 66.3896 7.276C66.7163 7.416 66.9963 7.62133 67.2296 7.892C67.463 8.16267 67.5843 8.522 67.5936 8.97C67.5936 9.38067 67.4816 9.74933 67.2576 10.076C67.0336 10.3933 66.721 10.6453 66.3196 10.832C65.9183 11.0187 65.4563 11.112 64.9336 11.112ZM76.3544 6.786C76.3544 7.122 76.345 7.37867 76.3264 7.556H69.9844C70.0124 8.13467 70.1524 8.62933 70.4044 9.04C70.6564 9.45067 70.9877 9.76333 71.3984 9.978C71.809 10.1833 72.257 10.286 72.7424 10.286C73.377 10.286 73.909 10.132 74.3384 9.824C74.777 9.516 75.0664 9.10067 75.2064 8.578H76.2424C76.0557 9.32467 75.6544 9.936 75.0384 10.412C74.4317 10.8787 73.6664 11.112 72.7424 11.112C72.0237 11.112 71.3797 10.9533 70.8104 10.636C70.241 10.3093 69.793 9.852 69.4664 9.264C69.149 8.66667 68.9904 7.97133 68.9904 7.178C68.9904 6.38467 69.149 5.68933 69.4664 5.092C69.7837 4.49467 70.227 4.03733 70.7964 3.72C71.3657 3.40267 72.0144 3.244 72.7424 3.244C73.4704 3.244 74.105 3.40267 74.6464 3.72C75.197 4.03733 75.617 4.46667 75.9064 5.008C76.205 5.54 76.3544 6.13267 76.3544 6.786ZM75.3604 6.758C75.3697 6.18867 75.253 5.70333 75.0104 5.302C74.777 4.90067 74.455 4.59733 74.0444 4.392C73.6337 4.18667 73.1857 4.084 72.7004 4.084C71.9724 4.084 71.3517 4.31733 70.8384 4.784C70.325 5.25067 70.0404 5.90867 69.9844 6.758H75.3604ZM81.7313 3.216C82.646 3.216 83.3927 3.50067 83.9713 4.07C84.55 4.63 84.8393 5.44667 84.8393 6.52V11H83.8733V6.632C83.8733 5.80133 83.6633 5.16667 83.2433 4.728C82.8327 4.28933 82.268 4.07 81.5493 4.07C80.812 4.07 80.224 4.30333 79.7853 4.77C79.3467 5.23667 79.1273 5.92267 79.1273 6.828V11H78.1473V3.356H79.1273V4.658C79.37 4.19133 79.72 3.83667 80.1773 3.594C80.6347 3.342 81.1527 3.216 81.7313 3.216ZM86.5587 7.164C86.5587 6.38 86.7174 5.694 87.0347 5.106C87.3521 4.50867 87.7861 4.05133 88.3367 3.734C88.8967 3.40733 89.5267 3.244 90.2267 3.244C90.8987 3.244 91.5054 3.40733 92.0467 3.734C92.5881 4.06067 92.9847 4.48533 93.2367 5.008V0.64H94.2167V11H93.2367V9.292C93.0034 9.824 92.6207 10.2627 92.0887 10.608C91.5567 10.944 90.9314 11.112 90.2127 11.112C89.5127 11.112 88.8827 10.9487 88.3227 10.622C87.7721 10.2953 87.3381 9.83333 87.0207 9.236C86.7127 8.63867 86.5587 7.948 86.5587 7.164ZM93.2367 7.178C93.2367 6.562 93.1107 6.02067 92.8587 5.554C92.6067 5.08733 92.2614 4.728 91.8227 4.476C91.3934 4.224 90.9174 4.098 90.3947 4.098C89.8534 4.098 89.3681 4.21933 88.9387 4.462C88.5094 4.70467 88.1687 5.05933 87.9167 5.526C87.6741 5.98333 87.5527 6.52933 87.5527 7.164C87.5527 7.78933 87.6741 8.34 87.9167 8.816C88.1687 9.28267 88.5094 9.642 88.9387 9.894C89.3681 10.1367 89.8534 10.258 90.3947 10.258C90.9174 10.258 91.3934 10.132 91.8227 9.88C92.2614 9.628 92.6067 9.26867 92.8587 8.802C93.1107 8.33533 93.2367 7.794 93.2367 7.178ZM106.596 3.356L102.06 14.598H101.038L102.522 10.958L99.3858 3.356H100.464L103.068 9.88L105.588 3.356H106.596ZM111.271 11.112C110.552 11.112 109.903 10.9533 109.325 10.636C108.755 10.3093 108.303 9.852 107.967 9.264C107.64 8.66667 107.477 7.97133 107.477 7.178C107.477 6.38467 107.645 5.694 107.981 5.106C108.317 4.50867 108.774 4.05133 109.353 3.734C109.931 3.40733 110.58 3.244 111.299 3.244C112.017 3.244 112.666 3.40733 113.245 3.734C113.833 4.05133 114.29 4.50867 114.617 5.106C114.953 5.694 115.121 6.38467 115.121 7.178C115.121 7.962 114.953 8.65267 114.617 9.25C114.281 9.84733 113.819 10.3093 113.231 10.636C112.643 10.9533 111.989 11.112 111.271 11.112ZM111.271 10.258C111.775 10.258 112.241 10.146 112.671 9.922C113.1 9.68867 113.445 9.34333 113.707 8.886C113.977 8.41933 114.113 7.85 114.113 7.178C114.113 6.506 113.982 5.94133 113.721 5.484C113.459 5.01733 113.114 4.672 112.685 4.448C112.255 4.21467 111.789 4.098 111.285 4.098C110.781 4.098 110.314 4.21467 109.885 4.448C109.455 4.672 109.11 5.01733 108.849 5.484C108.597 5.94133 108.471 6.506 108.471 7.178C108.471 7.85 108.597 8.41933 108.849 8.886C109.11 9.34333 109.451 9.68867 109.871 9.922C110.3 10.146 110.767 10.258 111.271 10.258ZM123.529 3.356V11H122.549V9.656C122.325 10.132 121.98 10.496 121.513 10.748C121.046 11 120.524 11.126 119.945 11.126C119.03 11.126 118.284 10.846 117.705 10.286C117.126 9.71667 116.837 8.89533 116.837 7.822V3.356H117.803V7.71C117.803 8.54067 118.008 9.17533 118.419 9.614C118.839 10.0527 119.408 10.272 120.127 10.272C120.864 10.272 121.452 10.0387 121.891 9.572C122.33 9.10533 122.549 8.41933 122.549 7.514V3.356H123.529ZM129.16 7.164C129.16 6.38 129.314 5.694 129.622 5.106C129.94 4.50867 130.374 4.05133 130.924 3.734C131.484 3.40733 132.114 3.244 132.814 3.244C133.542 3.244 134.168 3.412 134.69 3.748C135.222 4.084 135.605 4.51333 135.838 5.036V3.356H136.818V11H135.838V9.306C135.596 9.82867 135.208 10.2627 134.676 10.608C134.154 10.944 133.528 11.112 132.8 11.112C132.11 11.112 131.484 10.9487 130.924 10.622C130.374 10.2953 129.94 9.83333 129.622 9.236C129.314 8.63867 129.16 7.948 129.16 7.164ZM135.838 7.178C135.838 6.562 135.712 6.02067 135.46 5.554C135.208 5.08733 134.863 4.728 134.424 4.476C133.995 4.224 133.519 4.098 132.996 4.098C132.455 4.098 131.97 4.21933 131.54 4.462C131.111 4.70467 130.77 5.05933 130.518 5.526C130.276 5.98333 130.154 6.52933 130.154 7.164C130.154 7.78933 130.276 8.34 130.518 8.816C130.77 9.28267 131.111 9.642 131.54 9.894C131.97 10.1367 132.455 10.258 132.996 10.258C133.519 10.258 133.995 10.132 134.424 9.88C134.863 9.628 135.208 9.26867 135.46 8.802C135.712 8.33533 135.838 7.794 135.838 7.178ZM142.449 6.1C142.449 5.13867 142.659 4.28 143.079 3.524C143.499 2.75867 144.073 2.166 144.801 1.746C145.529 1.31667 146.341 1.102 147.237 1.102C148.329 1.102 149.263 1.36333 150.037 1.886C150.821 2.39933 151.391 3.12733 151.745 4.07H150.597C150.317 3.40733 149.888 2.88933 149.309 2.516C148.74 2.14267 148.049 1.956 147.237 1.956C146.519 1.956 145.87 2.124 145.291 2.46C144.722 2.796 144.274 3.28133 143.947 3.916C143.621 4.54133 143.457 5.26933 143.457 6.1C143.457 6.93067 143.621 7.65867 143.947 8.284C144.274 8.90933 144.722 9.39 145.291 9.726C145.87 10.062 146.519 10.23 147.237 10.23C148.049 10.23 148.74 10.048 149.309 9.684C149.888 9.31067 150.317 8.79733 150.597 8.144H151.745C151.391 9.07733 150.821 9.80067 150.037 10.314C149.253 10.8273 148.32 11.084 147.237 11.084C146.341 11.084 145.529 10.874 144.801 10.454C144.073 10.0247 143.499 9.432 143.079 8.676C142.659 7.92 142.449 7.06133 142.449 6.1ZM157.044 11.112C156.325 11.112 155.677 10.9533 155.098 10.636C154.529 10.3093 154.076 9.852 153.74 9.264C153.413 8.66667 153.25 7.97133 153.25 7.178C153.25 6.38467 153.418 5.694 153.754 5.106C154.09 4.50867 154.547 4.05133 155.126 3.734C155.705 3.40733 156.353 3.244 157.072 3.244C157.791 3.244 158.439 3.40733 159.018 3.734C159.606 4.05133 160.063 4.50867 160.39 5.106C160.726 5.694 160.894 6.38467 160.894 7.178C160.894 7.962 160.726 8.65267 160.39 9.25C160.054 9.84733 159.592 10.3093 159.004 10.636C158.416 10.9533 157.763 11.112 157.044 11.112ZM157.044 10.258C157.548 10.258 158.015 10.146 158.444 9.922C158.873 9.68867 159.219 9.34333 159.48 8.886C159.751 8.41933 159.886 7.85 159.886 7.178C159.886 6.506 159.755 5.94133 159.494 5.484C159.233 5.01733 158.887 4.672 158.458 4.448C158.029 4.21467 157.562 4.098 157.058 4.098C156.554 4.098 156.087 4.21467 155.658 4.448C155.229 4.672 154.883 5.01733 154.622 5.484C154.37 5.94133 154.244 6.506 154.244 7.178C154.244 7.85 154.37 8.41933 154.622 8.886C154.883 9.34333 155.224 9.68867 155.644 9.922C156.073 10.146 156.54 10.258 157.044 10.258ZM162.233 7.164C162.233 6.38 162.391 5.694 162.709 5.106C163.026 4.50867 163.46 4.05133 164.011 3.734C164.571 3.40733 165.201 3.244 165.901 3.244C166.573 3.244 167.179 3.40733 167.721 3.734C168.262 4.06067 168.659 4.48533 168.911 5.008V0.64H169.891V11H168.911V9.292C168.677 9.824 168.295 10.2627 167.763 10.608C167.231 10.944 166.605 11.112 165.887 11.112C165.187 11.112 164.557 10.9487 163.997 10.622C163.446 10.2953 163.012 9.83333 162.695 9.236C162.387 8.63867 162.233 7.948 162.233 7.164ZM168.911 7.178C168.911 6.562 168.785 6.02067 168.533 5.554C168.281 5.08733 167.935 4.728 167.497 4.476C167.067 4.224 166.591 4.098 166.069 4.098C165.527 4.098 165.042 4.21933 164.613 4.462C164.183 4.70467 163.843 5.05933 163.591 5.526C163.348 5.98333 163.227 6.52933 163.227 7.164C163.227 7.78933 163.348 8.34 163.591 8.816C163.843 9.28267 164.183 9.642 164.613 9.894C165.042 10.1367 165.527 10.258 166.069 10.258C166.591 10.258 167.067 10.132 167.497 9.88C167.935 9.628 168.281 9.26867 168.533 8.802C168.785 8.33533 168.911 7.794 168.911 7.178ZM179.044 6.786C179.044 7.122 179.034 7.37867 179.016 7.556H172.674C172.702 8.13467 172.842 8.62933 173.094 9.04C173.346 9.45067 173.677 9.76333 174.088 9.978C174.498 10.1833 174.946 10.286 175.432 10.286C176.066 10.286 176.598 10.132 177.028 9.824C177.466 9.516 177.756 9.10067 177.896 8.578H178.932C178.745 9.32467 178.344 9.936 177.728 10.412C177.121 10.8787 176.356 11.112 175.432 11.112C174.713 11.112 174.069 10.9533 173.5 10.636C172.93 10.3093 172.482 9.852 172.156 9.264C171.838 8.66667 171.68 7.97133 171.68 7.178C171.68 6.38467 171.838 5.68933 172.156 5.092C172.473 4.49467 172.916 4.03733 173.486 3.72C174.055 3.40267 174.704 3.244 175.432 3.244C176.16 3.244 176.794 3.40267 177.336 3.72C177.886 4.03733 178.306 4.46667 178.596 5.008C178.894 5.54 179.044 6.13267 179.044 6.786ZM178.05 6.758C178.059 6.18867 177.942 5.70333 177.7 5.302C177.466 4.90067 177.144 4.59733 176.734 4.392C176.323 4.18667 175.875 4.084 175.39 4.084C174.662 4.084 174.041 4.31733 173.528 4.784C173.014 5.25067 172.73 5.90867 172.674 6.758H178.05ZM185.953 4.182V8.928C185.953 9.39467 186.041 9.71667 186.219 9.894C186.396 10.0713 186.709 10.16 187.157 10.16H188.053V11H187.003C186.312 11 185.799 10.8413 185.463 10.524C185.127 10.1973 184.959 9.66533 184.959 8.928V4.182H183.895V3.356H184.959V1.438H185.953V3.356H188.053V4.182H185.953ZM193.015 11.112C192.296 11.112 191.647 10.9533 191.069 10.636C190.499 10.3093 190.047 9.852 189.711 9.264C189.384 8.66667 189.221 7.97133 189.221 7.178C189.221 6.38467 189.389 5.694 189.725 5.106C190.061 4.50867 190.518 4.05133 191.097 3.734C191.675 3.40733 192.324 3.244 193.043 3.244C193.761 3.244 194.41 3.40733 194.989 3.734C195.577 4.05133 196.034 4.50867 196.361 5.106C196.697 5.694 196.865 6.38467 196.865 7.178C196.865 7.962 196.697 8.65267 196.361 9.25C196.025 9.84733 195.563 10.3093 194.975 10.636C194.387 10.9533 193.733 11.112 193.015 11.112ZM193.015 10.258C193.519 10.258 193.985 10.146 194.415 9.922C194.844 9.68867 195.189 9.34333 195.451 8.886C195.721 8.41933 195.857 7.85 195.857 7.178C195.857 6.506 195.726 5.94133 195.465 5.484C195.203 5.01733 194.858 4.672 194.429 4.448C193.999 4.21467 193.533 4.098 193.029 4.098C192.525 4.098 192.058 4.21467 191.629 4.448C191.199 4.672 190.854 5.01733 190.593 5.484C190.341 5.94133 190.215 6.506 190.215 7.178C190.215 7.85 190.341 8.41933 190.593 8.886C190.854 9.34333 191.195 9.68867 191.615 9.922C192.044 10.146 192.511 10.258 193.015 10.258ZM205.125 11.112C204.248 11.112 203.529 10.9113 202.969 10.51C202.418 10.0993 202.11 9.544 202.045 8.844H203.053C203.1 9.27333 203.3 9.62333 203.655 9.894C204.019 10.1553 204.504 10.286 205.111 10.286C205.643 10.286 206.058 10.16 206.357 9.908C206.665 9.656 206.819 9.34333 206.819 8.97C206.819 8.70867 206.735 8.494 206.567 8.326C206.399 8.158 206.184 8.02733 205.923 7.934C205.671 7.83133 205.326 7.724 204.887 7.612C204.318 7.46267 203.856 7.31333 203.501 7.164C203.146 7.01467 202.843 6.79533 202.591 6.506C202.348 6.20733 202.227 5.81067 202.227 5.316C202.227 4.94267 202.339 4.59733 202.563 4.28C202.787 3.96267 203.104 3.71067 203.515 3.524C203.926 3.33733 204.392 3.244 204.915 3.244C205.736 3.244 206.399 3.454 206.903 3.874C207.407 4.28467 207.678 4.854 207.715 5.582H206.735C206.707 5.134 206.53 4.77467 206.203 4.504C205.886 4.224 205.447 4.084 204.887 4.084C204.392 4.084 203.991 4.20067 203.683 4.434C203.375 4.66733 203.221 4.95667 203.221 5.302C203.221 5.60067 203.31 5.848 203.487 6.044C203.674 6.23067 203.902 6.38 204.173 6.492C204.444 6.59467 204.808 6.71133 205.265 6.842C205.816 6.99133 206.254 7.136 206.581 7.276C206.908 7.416 207.188 7.62133 207.421 7.892C207.654 8.16267 207.776 8.522 207.785 8.97C207.785 9.38067 207.673 9.74933 207.449 10.076C207.225 10.3933 206.912 10.6453 206.511 10.832C206.11 11.0187 205.648 11.112 205.125 11.112ZM216.546 6.786C216.546 7.122 216.536 7.37867 216.518 7.556H210.176C210.204 8.13467 210.344 8.62933 210.596 9.04C210.848 9.45067 211.179 9.76333 211.59 9.978C212 10.1833 212.448 10.286 212.934 10.286C213.568 10.286 214.1 10.132 214.53 9.824C214.968 9.516 215.258 9.10067 215.398 8.578H216.434C216.247 9.32467 215.846 9.936 215.23 10.412C214.623 10.8787 213.858 11.112 212.934 11.112C212.215 11.112 211.571 10.9533 211.002 10.636C210.432 10.3093 209.984 9.852 209.658 9.264C209.34 8.66667 209.182 7.97133 209.182 7.178C209.182 6.38467 209.34 5.68933 209.658 5.092C209.975 4.49467 210.418 4.03733 210.988 3.72C211.557 3.40267 212.206 3.244 212.934 3.244C213.662 3.244 214.296 3.40267 214.838 3.72C215.388 4.03733 215.808 4.46667 216.098 5.008C216.396 5.54 216.546 6.13267 216.546 6.786ZM215.552 6.758C215.561 6.18867 215.444 5.70333 215.202 5.302C214.968 4.90067 214.646 4.59733 214.236 4.392C213.825 4.18667 213.377 4.084 212.892 4.084C212.164 4.084 211.543 4.31733 211.03 4.784C210.516 5.25067 210.232 5.90867 210.176 6.758H215.552ZM219.613 4.182V8.928C219.613 9.39467 219.701 9.71667 219.879 9.894C220.056 10.0713 220.369 10.16 220.817 10.16H221.713V11H220.663C219.972 11 219.459 10.8413 219.123 10.524C218.787 10.1973 218.619 9.66533 218.619 8.928V4.182H217.555V3.356H218.619V1.438H219.613V3.356H221.713V4.182H219.613ZM230.517 11.112C229.798 11.112 229.149 10.9533 228.571 10.636C228.001 10.3093 227.549 9.852 227.213 9.264C226.886 8.66667 226.723 7.97133 226.723 7.178C226.723 6.38467 226.891 5.694 227.227 5.106C227.563 4.50867 228.02 4.05133 228.599 3.734C229.177 3.40733 229.826 3.244 230.545 3.244C231.263 3.244 231.912 3.40733 232.491 3.734C233.079 4.05133 233.536 4.50867 233.863 5.106C234.199 5.694 234.367 6.38467 234.367 7.178C234.367 7.962 234.199 8.65267 233.863 9.25C233.527 9.84733 233.065 10.3093 232.477 10.636C231.889 10.9533 231.235 11.112 230.517 11.112ZM230.517 10.258C231.021 10.258 231.487 10.146 231.917 9.922C232.346 9.68867 232.691 9.34333 232.953 8.886C233.223 8.41933 233.359 7.85 233.359 7.178C233.359 6.506 233.228 5.94133 232.967 5.484C232.705 5.01733 232.36 4.672 231.931 4.448C231.501 4.21467 231.035 4.098 230.531 4.098C230.027 4.098 229.56 4.21467 229.131 4.448C228.701 4.672 228.356 5.01733 228.095 5.484C227.843 5.94133 227.717 6.506 227.717 7.178C227.717 7.85 227.843 8.41933 228.095 8.886C228.356 9.34333 228.697 9.68867 229.117 9.922C229.546 10.146 230.013 10.258 230.517 10.258ZM237.133 4.714C237.348 4.238 237.675 3.86933 238.113 3.608C238.561 3.34667 239.107 3.216 239.751 3.216V4.238H239.485C238.776 4.238 238.207 4.42933 237.777 4.812C237.348 5.19467 237.133 5.834 237.133 6.73V11H236.153V3.356H237.133V4.714ZM246.047 4.714C246.262 4.238 246.589 3.86933 247.027 3.608C247.475 3.34667 248.021 3.216 248.665 3.216V4.238H248.399C247.69 4.238 247.121 4.42933 246.691 4.812C246.262 5.19467 246.047 5.834 246.047 6.73V11H245.067V3.356H246.047V4.714ZM257.056 6.786C257.056 7.122 257.046 7.37867 257.028 7.556H250.686C250.714 8.13467 250.854 8.62933 251.106 9.04C251.358 9.45067 251.689 9.76333 252.1 9.978C252.51 10.1833 252.958 10.286 253.444 10.286C254.078 10.286 254.61 10.132 255.04 9.824C255.478 9.516 255.768 9.10067 255.908 8.578H256.944C256.757 9.32467 256.356 9.936 255.74 10.412C255.133 10.8787 254.368 11.112 253.444 11.112C252.725 11.112 252.081 10.9533 251.512 10.636C250.942 10.3093 250.494 9.852 250.168 9.264C249.85 8.66667 249.692 7.97133 249.692 7.178C249.692 6.38467 249.85 5.68933 250.168 5.092C250.485 4.49467 250.928 4.03733 251.498 3.72C252.067 3.40267 252.716 3.244 253.444 3.244C254.172 3.244 254.806 3.40267 255.348 3.72C255.898 4.03733 256.318 4.46667 256.608 5.008C256.906 5.54 257.056 6.13267 257.056 6.786ZM256.062 6.758C256.071 6.18867 255.954 5.70333 255.712 5.302C255.478 4.90067 255.156 4.59733 254.746 4.392C254.335 4.18667 253.887 4.084 253.402 4.084C252.674 4.084 252.053 4.31733 251.54 4.784C251.026 5.25067 250.742 5.90867 250.686 6.758H256.062ZM261.481 11.112C260.603 11.112 259.885 10.9113 259.325 10.51C258.774 10.0993 258.466 9.544 258.401 8.844H259.409C259.455 9.27333 259.656 9.62333 260.011 9.894C260.375 10.1553 260.86 10.286 261.467 10.286C261.999 10.286 262.414 10.16 262.713 9.908C263.021 9.656 263.175 9.34333 263.175 8.97C263.175 8.70867 263.091 8.494 262.923 8.326C262.755 8.158 262.54 8.02733 262.279 7.934C262.027 7.83133 261.681 7.724 261.243 7.612C260.673 7.46267 260.211 7.31333 259.857 7.164C259.502 7.01467 259.199 6.79533 258.947 6.506C258.704 6.20733 258.583 5.81067 258.583 5.316C258.583 4.94267 258.695 4.59733 258.919 4.28C259.143 3.96267 259.46 3.71067 259.871 3.524C260.281 3.33733 260.748 3.244 261.271 3.244C262.092 3.244 262.755 3.454 263.259 3.874C263.763 4.28467 264.033 4.854 264.071 5.582H263.091C263.063 5.134 262.885 4.77467 262.559 4.504C262.241 4.224 261.803 4.084 261.243 4.084C260.748 4.084 260.347 4.20067 260.039 4.434C259.731 4.66733 259.577 4.95667 259.577 5.302C259.577 5.60067 259.665 5.848 259.843 6.044C260.029 6.23067 260.258 6.38 260.529 6.492C260.799 6.59467 261.163 6.71133 261.621 6.842C262.171 6.99133 262.61 7.136 262.937 7.276C263.263 7.416 263.543 7.62133 263.777 7.892C264.01 8.16267 264.131 8.522 264.141 8.97C264.141 9.38067 264.029 9.74933 263.805 10.076C263.581 10.3933 263.268 10.6453 262.867 10.832C262.465 11.0187 262.003 11.112 261.481 11.112ZM272.901 6.786C272.901 7.122 272.892 7.37867 272.873 7.556H266.531C266.559 8.13467 266.699 8.62933 266.951 9.04C267.203 9.45067 267.535 9.76333 267.945 9.978C268.356 10.1833 268.804 10.286 269.289 10.286C269.924 10.286 270.456 10.132 270.885 9.824C271.324 9.516 271.613 9.10067 271.753 8.578H272.789C272.603 9.32467 272.201 9.936 271.585 10.412C270.979 10.8787 270.213 11.112 269.289 11.112C268.571 11.112 267.927 10.9533 267.357 10.636C266.788 10.3093 266.34 9.852 266.013 9.264C265.696 8.66667 265.537 7.97133 265.537 7.178C265.537 6.38467 265.696 5.68933 266.013 5.092C266.331 4.49467 266.774 4.03733 267.343 3.72C267.913 3.40267 268.561 3.244 269.289 3.244C270.017 3.244 270.652 3.40267 271.193 3.72C271.744 4.03733 272.164 4.46667 272.453 5.008C272.752 5.54 272.901 6.13267 272.901 6.786ZM271.907 6.758C271.917 6.18867 271.8 5.70333 271.557 5.302C271.324 4.90067 271.002 4.59733 270.591 4.392C270.181 4.18667 269.733 4.084 269.247 4.084C268.519 4.084 267.899 4.31733 267.385 4.784C266.872 5.25067 266.587 5.90867 266.531 6.758H271.907ZM275.968 4.182V8.928C275.968 9.39467 276.057 9.71667 276.234 9.894C276.412 10.0713 276.724 10.16 277.172 10.16H278.068V11H277.018C276.328 11 275.814 10.8413 275.478 10.524C275.142 10.1973 274.974 9.66533 274.974 8.928V4.182H273.91V3.356H274.974V1.438H275.968V3.356H278.068V4.182H275.968ZM289.826 3.356L285.29 14.598H284.268L285.752 10.958L282.616 3.356H283.694L286.298 9.88L288.818 3.356H289.826ZM294.501 11.112C293.782 11.112 293.134 10.9533 292.555 10.636C291.986 10.3093 291.533 9.852 291.197 9.264C290.87 8.66667 290.707 7.97133 290.707 7.178C290.707 6.38467 290.875 5.694 291.211 5.106C291.547 4.50867 292.004 4.05133 292.583 3.734C293.162 3.40733 293.81 3.244 294.529 3.244C295.248 3.244 295.896 3.40733 296.475 3.734C297.063 4.05133 297.52 4.50867 297.847 5.106C298.183 5.694 298.351 6.38467 298.351 7.178C298.351 7.962 298.183 8.65267 297.847 9.25C297.511 9.84733 297.049 10.3093 296.461 10.636C295.873 10.9533 295.22 11.112 294.501 11.112ZM294.501 10.258C295.005 10.258 295.472 10.146 295.901 9.922C296.33 9.68867 296.676 9.34333 296.937 8.886C297.208 8.41933 297.343 7.85 297.343 7.178C297.343 6.506 297.212 5.94133 296.951 5.484C296.69 5.01733 296.344 4.672 295.915 4.448C295.486 4.21467 295.019 4.098 294.515 4.098C294.011 4.098 293.544 4.21467 293.115 4.448C292.686 4.672 292.34 5.01733 292.079 5.484C291.827 5.94133 291.701 6.506 291.701 7.178C291.701 7.85 291.827 8.41933 292.079 8.886C292.34 9.34333 292.681 9.68867 293.101 9.922C293.53 10.146 293.997 10.258 294.501 10.258ZM306.76 3.356V11H305.78V9.656C305.556 10.132 305.21 10.496 304.744 10.748C304.277 11 303.754 11.126 303.176 11.126C302.261 11.126 301.514 10.846 300.936 10.286C300.357 9.71667 300.068 8.89533 300.068 7.822V3.356H301.034V7.71C301.034 8.54067 301.239 9.17533 301.65 9.614C302.07 10.0527 302.639 10.272 303.358 10.272C304.095 10.272 304.683 10.0387 305.122 9.572C305.56 9.10533 305.78 8.41933 305.78 7.514V3.356H306.76ZM309.977 4.714C310.192 4.238 310.518 3.86933 310.957 3.608C311.405 3.34667 311.951 3.216 312.595 3.216V4.238H312.329C311.62 4.238 311.05 4.42933 310.621 4.812C310.192 5.19467 309.977 5.834 309.977 6.73V11H308.997V3.356H309.977V4.714ZM4.704 22.216C5.61867 22.216 6.36533 22.5007 6.944 23.07C7.52267 23.63 7.812 24.4467 7.812 25.52V30H6.846V25.632C6.846 24.8013 6.636 24.1667 6.216 23.728C5.80533 23.2893 5.24067 23.07 4.522 23.07C3.78467 23.07 3.19667 23.3033 2.758 23.77C2.31933 24.2367 2.1 24.9227 2.1 25.828V30H1.12V22.356H2.1V23.658C2.34267 23.1913 2.69267 22.8367 3.15 22.594C3.60733 22.342 4.12533 22.216 4.704 22.216ZM16.8954 25.786C16.8954 26.122 16.886 26.3787 16.8674 26.556H10.5254C10.5534 27.1347 10.6934 27.6293 10.9454 28.04C11.1974 28.4507 11.5287 28.7633 11.9394 28.978C12.35 29.1833 12.798 29.286 13.2834 29.286C13.918 29.286 14.45 29.132 14.8794 28.824C15.318 28.516 15.6074 28.1007 15.7474 27.578H16.7834C16.5967 28.3247 16.1954 28.936 15.5794 29.412C14.9727 29.8787 14.2074 30.112 13.2834 30.112C12.5647 30.112 11.9207 29.9533 11.3514 29.636C10.782 29.3093 10.334 28.852 10.0074 28.264C9.69004 27.6667 9.53138 26.9713 9.53138 26.178C9.53138 25.3847 9.69004 24.6893 10.0074 24.092C10.3247 23.4947 10.768 23.0373 11.3374 22.72C11.9067 22.4027 12.5554 22.244 13.2834 22.244C14.0114 22.244 14.646 22.4027 15.1874 22.72C15.738 23.0373 16.158 23.4667 16.4474 24.008C16.746 24.54 16.8954 25.1327 16.8954 25.786ZM15.9014 25.758C15.9107 25.1887 15.794 24.7033 15.5514 24.302C15.318 23.9007 14.996 23.5973 14.5854 23.392C14.1747 23.1867 13.7267 23.084 13.2414 23.084C12.5134 23.084 11.8927 23.3173 11.3794 23.784C10.866 24.2507 10.5814 24.9087 10.5254 25.758H15.9014ZM28.7684 22.356L26.3744 30H25.3944L23.2804 23.588L21.1664 30H20.1724L17.7784 22.356H18.7724L20.6764 29.006L22.8184 22.356H23.7984L25.9124 29.02L27.8024 22.356H28.7684ZM34.9122 24.036C35.1548 23.5227 35.5375 23.098 36.0602 22.762C36.5922 22.4167 37.2222 22.244 37.9502 22.244C38.6408 22.244 39.2615 22.4073 39.8122 22.734C40.3722 23.0513 40.8062 23.5087 41.1142 24.106C41.4315 24.694 41.5902 25.38 41.5902 26.164C41.5902 26.948 41.4315 27.6387 41.1142 28.236C40.8062 28.8333 40.3722 29.2953 39.8122 29.622C39.2615 29.9487 38.6408 30.112 37.9502 30.112C37.2315 30.112 36.6062 29.944 36.0742 29.608C35.5422 29.2627 35.1548 28.8333 34.9122 28.32V33.612H33.9462V22.356H34.9122V24.036ZM40.5962 26.164C40.5962 25.5293 40.4702 24.9833 40.2182 24.526C39.9755 24.0593 39.6395 23.7047 39.2102 23.462C38.7808 23.2193 38.2955 23.098 37.7542 23.098C37.2315 23.098 36.7508 23.224 36.3122 23.476C35.8828 23.728 35.5422 24.0873 35.2902 24.554C35.0382 25.0207 34.9122 25.562 34.9122 26.178C34.9122 26.794 35.0382 27.3353 35.2902 27.802C35.5422 28.2687 35.8828 28.628 36.3122 28.88C36.7508 29.132 37.2315 29.258 37.7542 29.258C38.2955 29.258 38.7808 29.1367 39.2102 28.894C39.6395 28.642 39.9755 28.2827 40.2182 27.816C40.4702 27.34 40.5962 26.7893 40.5962 26.164ZM42.9454 26.164C42.9454 25.38 43.0994 24.694 43.4074 24.106C43.7248 23.5087 44.1588 23.0513 44.7094 22.734C45.2694 22.4073 45.8994 22.244 46.5994 22.244C47.3274 22.244 47.9528 22.412 48.4754 22.748C49.0074 23.084 49.3901 23.5133 49.6234 24.036V22.356H50.6034V30H49.6234V28.306C49.3808 28.8287 48.9934 29.2627 48.4614 29.608C47.9388 29.944 47.3134 30.112 46.5854 30.112C45.8948 30.112 45.2694 29.9487 44.7094 29.622C44.1588 29.2953 43.7248 28.8333 43.4074 28.236C43.0994 27.6387 42.9454 26.948 42.9454 26.164ZM49.6234 26.178C49.6234 25.562 49.4974 25.0207 49.2454 24.554C48.9934 24.0873 48.6481 23.728 48.2094 23.476C47.7801 23.224 47.3041 23.098 46.7814 23.098C46.2401 23.098 45.7548 23.2193 45.3254 23.462C44.8961 23.7047 44.5554 24.0593 44.3034 24.526C44.0608 24.9833 43.9394 25.5293 43.9394 26.164C43.9394 26.7893 44.0608 27.34 44.3034 27.816C44.5554 28.2827 44.8961 28.642 45.3254 28.894C45.7548 29.1367 46.2401 29.258 46.7814 29.258C47.3041 29.258 47.7801 29.132 48.2094 28.88C48.6481 28.628 48.9934 28.2687 49.2454 27.802C49.4974 27.3353 49.6234 26.794 49.6234 26.178ZM55.4727 30.112C54.5954 30.112 53.8767 29.9113 53.3167 29.51C52.766 29.0993 52.458 28.544 52.3927 27.844H53.4007C53.4474 28.2733 53.648 28.6233 54.0027 28.894C54.3667 29.1553 54.852 29.286 55.4587 29.286C55.9907 29.286 56.406 29.16 56.7047 28.908C57.0127 28.656 57.1667 28.3433 57.1667 27.97C57.1667 27.7087 57.0827 27.494 56.9147 27.326C56.7467 27.158 56.532 27.0273 56.2707 26.934C56.0187 26.8313 55.6734 26.724 55.2347 26.612C54.6654 26.4627 54.2034 26.3133 53.8487 26.164C53.494 26.0147 53.1907 25.7953 52.9387 25.506C52.696 25.2073 52.5747 24.8107 52.5747 24.316C52.5747 23.9427 52.6867 23.5973 52.9107 23.28C53.1347 22.9627 53.452 22.7107 53.8627 22.524C54.2734 22.3373 54.74 22.244 55.2627 22.244C56.084 22.244 56.7467 22.454 57.2507 22.874C57.7547 23.2847 58.0254 23.854 58.0627 24.582H57.0827C57.0547 24.134 56.8774 23.7747 56.5507 23.504C56.2334 23.224 55.7947 23.084 55.2347 23.084C54.74 23.084 54.3387 23.2007 54.0307 23.434C53.7227 23.6673 53.5687 23.9567 53.5687 24.302C53.5687 24.6007 53.6574 24.848 53.8347 25.044C54.0214 25.2307 54.25 25.38 54.5207 25.492C54.7914 25.5947 55.1554 25.7113 55.6127 25.842C56.1634 25.9913 56.602 26.136 56.9287 26.276C57.2554 26.416 57.5354 26.6213 57.7687 26.892C58.002 27.1627 58.1234 27.522 58.1327 27.97C58.1327 28.3807 58.0207 28.7493 57.7967 29.076C57.5727 29.3933 57.26 29.6453 56.8587 29.832C56.4574 30.0187 55.9954 30.112 55.4727 30.112ZM62.6094 30.112C61.7321 30.112 61.0134 29.9113 60.4534 29.51C59.9028 29.0993 59.5948 28.544 59.5294 27.844H60.5374C60.5841 28.2733 60.7848 28.6233 61.1394 28.894C61.5034 29.1553 61.9888 29.286 62.5954 29.286C63.1274 29.286 63.5428 29.16 63.8414 28.908C64.1494 28.656 64.3034 28.3433 64.3034 27.97C64.3034 27.7087 64.2194 27.494 64.0514 27.326C63.8834 27.158 63.6688 27.0273 63.4074 26.934C63.1554 26.8313 62.8101 26.724 62.3714 26.612C61.8021 26.4627 61.3401 26.3133 60.9854 26.164C60.6308 26.0147 60.3274 25.7953 60.0754 25.506C59.8328 25.2073 59.7114 24.8107 59.7114 24.316C59.7114 23.9427 59.8234 23.5973 60.0474 23.28C60.2714 22.9627 60.5888 22.7107 60.9994 22.524C61.4101 22.3373 61.8768 22.244 62.3994 22.244C63.2208 22.244 63.8834 22.454 64.3874 22.874C64.8914 23.2847 65.1621 23.854 65.1994 24.582H64.2194C64.1914 24.134 64.0141 23.7747 63.6874 23.504C63.3701 23.224 62.9314 23.084 62.3714 23.084C61.8768 23.084 61.4754 23.2007 61.1674 23.434C60.8594 23.6673 60.7054 23.9567 60.7054 24.302C60.7054 24.6007 60.7941 24.848 60.9714 25.044C61.1581 25.2307 61.3868 25.38 61.6574 25.492C61.9281 25.5947 62.2921 25.7113 62.7494 25.842C63.3001 25.9913 63.7388 26.136 64.0654 26.276C64.3921 26.416 64.6721 26.6213 64.9054 26.892C65.1388 27.1627 65.2601 27.522 65.2694 27.97C65.2694 28.3807 65.1574 28.7493 64.9334 29.076C64.7094 29.3933 64.3968 29.6453 63.9954 29.832C63.5941 30.0187 63.1321 30.112 62.6094 30.112ZM77.1941 22.356L74.8001 30H73.8201L71.7061 23.588L69.5921 30H68.5981L66.2041 22.356H67.1981L69.1021 29.006L71.2441 22.356H72.2241L74.3381 29.02L76.2281 22.356H77.1941ZM81.8762 30.112C81.1575 30.112 80.5088 29.9533 79.9302 29.636C79.3608 29.3093 78.9082 28.852 78.5722 28.264C78.2455 27.6667 78.0822 26.9713 78.0822 26.178C78.0822 25.3847 78.2502 24.694 78.5862 24.106C78.9222 23.5087 79.3795 23.0513 79.9582 22.734C80.5368 22.4073 81.1855 22.244 81.9042 22.244C82.6228 22.244 83.2715 22.4073 83.8502 22.734C84.4382 23.0513 84.8955 23.5087 85.2222 24.106C85.5582 24.694 85.7262 25.3847 85.7262 26.178C85.7262 26.962 85.5582 27.6527 85.2222 28.25C84.8862 28.8473 84.4242 29.3093 83.8362 29.636C83.2482 29.9533 82.5948 30.112 81.8762 30.112ZM81.8762 29.258C82.3802 29.258 82.8468 29.146 83.2762 28.922C83.7055 28.6887 84.0508 28.3433 84.3122 27.886C84.5828 27.4193 84.7182 26.85 84.7182 26.178C84.7182 25.506 84.5875 24.9413 84.3262 24.484C84.0648 24.0173 83.7195 23.672 83.2902 23.448C82.8608 23.2147 82.3942 23.098 81.8902 23.098C81.3862 23.098 80.9195 23.2147 80.4902 23.448C80.0608 23.672 79.7155 24.0173 79.4542 24.484C79.2022 24.9413 79.0762 25.506 79.0762 26.178C79.0762 26.85 79.2022 27.4193 79.4542 27.886C79.7155 28.3433 80.0562 28.6887 80.4762 28.922C80.9055 29.146 81.3722 29.258 81.8762 29.258ZM88.4926 23.714C88.7072 23.238 89.0339 22.8693 89.4726 22.608C89.9206 22.3467 90.4666 22.216 91.1106 22.216V23.238H90.8446C90.1352 23.238 89.5659 23.4293 89.1366 23.812C88.7072 24.1947 88.4926 24.834 88.4926 25.73V30H87.5126V22.356H88.4926V23.714ZM92.1368 26.164C92.1368 25.38 92.2955 24.694 92.6128 24.106C92.9302 23.5087 93.3642 23.0513 93.9148 22.734C94.4748 22.4073 95.1048 22.244 95.8048 22.244C96.4768 22.244 97.0835 22.4073 97.6248 22.734C98.1662 23.0607 98.5628 23.4853 98.8148 24.008V19.64H99.7948V30H98.8148V28.292C98.5815 28.824 98.1988 29.2627 97.6668 29.608C97.1348 29.944 96.5095 30.112 95.7908 30.112C95.0908 30.112 94.4608 29.9487 93.9008 29.622C93.3502 29.2953 92.9162 28.8333 92.5988 28.236C92.2908 27.6387 92.1368 26.948 92.1368 26.164ZM98.8148 26.178C98.8148 25.562 98.6888 25.0207 98.4368 24.554C98.1848 24.0873 97.8395 23.728 97.4008 23.476C96.9715 23.224 96.4955 23.098 95.9728 23.098C95.4315 23.098 94.9462 23.2193 94.5168 23.462C94.0875 23.7047 93.7468 24.0593 93.4948 24.526C93.2522 24.9833 93.1308 25.5293 93.1308 26.164C93.1308 26.7893 93.2522 27.34 93.4948 27.816C93.7468 28.2827 94.0875 28.642 94.5168 28.894C94.9462 29.1367 95.4315 29.258 95.9728 29.258C96.4955 29.258 96.9715 29.132 97.4008 28.88C97.8395 28.628 98.1848 28.2687 98.4368 27.802C98.6888 27.3353 98.8148 26.794 98.8148 26.178Z" fill="white"/>
</svg>
