<svg width="55" height="51" viewBox="0 0 55 51" fill="none" xmlns="http://www.w3.org/2000/svg">
<path d="M22.3703 9.14881C23.4481 9.14881 24.342 8.27988 24.3672 7.18545V7.14368C24.3672 7.01845 24.3754 6.89302 24.3921 6.77605C24.4007 6.63391 24.4255 6.50868 24.4674 6.375C24.8017 5.02136 26.0383 4.01049 27.5086 4.01049C27.9263 4.01049 28.3192 4.09414 28.6868 4.24443C29.823 4.70396 30.6335 5.83181 30.6335 7.14368V7.18545C30.6335 7.31068 30.625 7.43611 30.6082 7.55308C30.5915 7.6783 30.5667 7.80374 30.5415 7.9206C30.5415 7.94567 30.5332 7.96238 30.5248 7.97919C30.1737 9.32427 28.9539 10.3186 27.4918 10.3186C27.0826 10.3186 26.9259 10.0642 26.3221 10.0847C25.803 10.1022 25.495 10.611 25.495 10.9703V15.7161C25.495 15.9584 25.545 16.2006 25.6287 16.418C26.2051 16.3427 26.8317 16.301 27.5086 16.301C28.1772 16.301 28.8038 16.3427 29.3718 16.418C29.4554 16.2006 29.5056 15.9585 29.5056 15.7161V14.0033C30.8927 13.6022 32.1292 12.7751 33.0398 11.6471C33.9504 10.536 34.4936 9.17399 34.619 7.7536C34.6358 7.56979 34.6439 7.37762 34.6439 7.18556V7.14378C34.6439 3.90208 32.4716 1.15312 29.5056 0.292536C28.8706 0.100158 28.2022 0 27.5086 0C26.8068 0 26.1301 0.100158 25.495 0.292536C22.7044 1.10299 20.6156 3.58448 20.3817 6.57542C20.365 6.75944 20.3564 6.95161 20.3564 7.14378V7.18556C20.3818 8.27988 21.2756 9.14881 22.3703 9.14881Z" fill="#8D96B0"/>
<path d="M38.2979 42.9049L38.1421 42.7271H16.8588L16.7028 42.9047C15.6692 44.0837 14.7732 45.101 13.9635 46.0144L13.1943 46.8825H41.8061L41.0371 46.0146C40.207 45.0778 39.2855 44.0313 38.2979 42.9049Z" fill="#8D96B0"/>
<path d="M53.4984 46.7025C51.1489 43.7708 38.9162 29.7043 34.6905 25.4547C34.6603 23.1793 34.1499 21.739 33.0472 20.8016C31.9433 19.8636 30.2325 19.1377 27.5002 19.1377C24.7681 19.1377 23.0575 19.8634 21.9533 20.8016C20.8506 21.7389 20.3402 23.1793 20.3101 25.4547C16.0838 29.7047 3.8513 43.7712 1.50224 46.7025C0.746726 47.645 0.554557 48.8088 1.00125 49.7392C1.38047 50.5288 2.16335 51.0002 3.09568 51.0002C4.12013 51.0002 5.26771 50.45 6.41436 49.4091C9.73606 46.3939 24.953 31.8257 27.5002 29.3858C30.0474 31.8257 45.2644 46.3939 48.5861 49.4091C50.0348 50.7242 51.1904 51.0002 51.9046 51.0002H51.9049C52.8373 51.0002 53.6202 50.5287 53.9992 49.7394C54.4459 48.8088 54.2539 47.6452 53.4984 46.7025Z" fill="#8D96B0"/>
</svg>
